<?xml version="1.0" encoding="UTF-8" standalone="no"?>
<!-- Generator: Gravit.io -->

<svg
   xmlns:dc="http://purl.org/dc/elements/1.1/"
   xmlns:cc="http://creativecommons.org/ns#"
   xmlns:rdf="http://www.w3.org/1999/02/22-rdf-syntax-ns#"
   xmlns:svg="http://www.w3.org/2000/svg"
   xmlns="http://www.w3.org/2000/svg"
   xmlns:xlink="http://www.w3.org/1999/xlink"
   xmlns:sodipodi="http://sodipodi.sourceforge.net/DTD/sodipodi-0.dtd"
   xmlns:inkscape="http://www.inkscape.org/namespaces/inkscape"
   style="isolation:isolate"
   viewBox="0 0 32 32"
   width="32"
   height="32"
   version="1.1"
   id="svg77"
   sodipodi:docname="com.github.cjfloss.envelope.svg"
   inkscape:version="0.92.4 5da689c313, 2019-01-14">
  <metadata
     id="metadata81">
    <rdf:RDF>
      <cc:Work
         rdf:about="">
        <dc:format>image/svg+xml</dc:format>
        <dc:type
           rdf:resource="http://purl.org/dc/dcmitype/StillImage" />
        <dc:title />
      </cc:Work>
    </rdf:RDF>
  </metadata>
  <sodipodi:namedview
     pagecolor="#ffffff"
     bordercolor="#666666"
     borderopacity="1"
     objecttolerance="10"
     gridtolerance="10"
     guidetolerance="10"
     inkscape:pageopacity="0"
     inkscape:pageshadow="2"
     inkscape:window-width="2560"
     inkscape:window-height="1386"
     id="namedview79"
     showgrid="true"
     inkscape:object-paths="true"
     inkscape:snap-intersection-paths="true"
     inkscape:snap-smooth-nodes="true"
     inkscape:zoom="22.627417"
     inkscape:cx="9.3919296"
     inkscape:cy="18.801367"
     inkscape:window-x="0"
     inkscape:window-y="28"
     inkscape:window-maximized="1"
     inkscape:current-layer="layer1"
     showguides="true"
     inkscape:guide-bbox="true"
     inkscape:snap-page="true">
    <inkscape:grid
       type="xygrid"
       id="grid1864" />
    <sodipodi:guide
       position="63.34375,4"
       orientation="0,1"
       id="guide2016"
       inkscape:locked="false" />
    <sodipodi:guide
       position="63.515625,56"
       orientation="0,1"
       id="guide2018"
       inkscape:locked="false" />
  </sodipodi:namedview>
  <defs
     id="defs43">
    <linearGradient
       id="linearGradient1910"
       inkscape:collect="always">
      <stop
         id="stop1902"
         offset="0"
         style="stop-color:#ffffff;stop-opacity:0.76878613" />
      <stop
         id="stop1908"
         offset="1"
         style="stop-color:#cacaca;stop-opacity:0.76878613" />
    </linearGradient>
    <linearGradient
       inkscape:collect="always"
       id="linearGradient1840">
      <stop
         style="stop-color:#ffffff;stop-opacity:0.76878613"
         offset="0"
         id="stop1836" />
      <stop
         id="stop1846"
         offset="0.13951814"
         style="stop-color:#c7c7c7;stop-opacity:0.30057803" />
      <stop
         style="stop-color:#c7c7c7;stop-opacity:0.3019608"
         offset="0.83909923"
         id="stop1848" />
      <stop
         style="stop-color:#b1b1b1;stop-opacity:0.89411765"
         offset="1"
         id="stop1838" />
    </linearGradient>
    <linearGradient
       inkscape:collect="always"
       id="linearGradient1460">
      <stop
         style="stop-color:#c6f27b;stop-opacity:1"
         offset="0"
         id="stop1456" />
      <stop
         style="stop-color:#63ae21;stop-opacity:1"
         offset="1"
         id="stop1458" />
    </linearGradient>
    <linearGradient
       inkscape:collect="always"
       id="linearGradient1441">
      <stop
         style="stop-color:#f2d666;stop-opacity:1"
         offset="0"
         id="stop1437" />
      <stop
         style="stop-color:#ecba3d;stop-opacity:1"
         offset="1"
         id="stop1439" />
    </linearGradient>
    <linearGradient
       id="_lgradient_5"
       x1="64"
       y1="15.5"
       x2="64"
       y2="118.5"
       gradientUnits="userSpaceOnUse">
      <stop
         offset="0%"
         style="stop-color:#63ae21;stop-opacity:1"
         id="stop30" />
      <stop
         offset="100%"
         style="stop-color:#3A9104"
         id="stop36" />
      <stop
         offset="100%"
         style="stop-color:#775F5B"
         id="stop38" />
      <stop
         offset="100%"
         style="stop-color:#93d049;stop-opacity:1"
         id="stop40" />
    </linearGradient>
    <linearGradient
       y2="203.99179"
       x2="10.146318"
       y1="195.56238"
       x1="10.146318"
       id="_lgradient_3"
       gradientTransform="scale(1.6858826,0.59316113)"
       gradientUnits="userSpaceOnUse">
      <stop
         id="stop960"
         style="stop-color:#000000"
         offset="0%" />
      <stop
         id="stop962"
         style="stop-color:#000000"
         offset="100%" />
    </linearGradient>
    <linearGradient
       y2="1.0135138"
       x2="0.49999976"
       y1="-0.013513535"
       x1="0.49999976"
       id="linearGradient1046">
      <stop
         id="stop999"
         style="stop-color:#FFFFFF"
         offset="0%" />
      <stop
         id="stop1001"
         style="stop-color:rgba(255,255,255,0.23529412)"
         offset="6.316455%" />
      <stop
         id="stop1003"
         style="stop-color:rgba(255,255,255,0.15686275)"
         offset="95.056331%" />
      <stop
         id="stop1005"
         style="stop-color:rgba(255,255,255,0.39215687)"
         offset="100%" />
    </linearGradient>
    <linearGradient
       inkscape:collect="always"
       xlink:href="#linearGradient1441"
       id="linearGradient1443"
       x1="54.781986"
       y1="64.134422"
       x2="60.551353"
       y2="115.20943"
       gradientUnits="userSpaceOnUse"
       gradientTransform="matrix(0.34542334,0,0,0.34542334,-6.039133,87.988765)" />
    <linearGradient
       inkscape:collect="always"
       xlink:href="#linearGradient1460"
       id="linearGradient1462"
       x1="61.313354"
       y1="-1.3543969"
       x2="62.413956"
       y2="103.59476"
       gradientUnits="userSpaceOnUse"
       gradientTransform="matrix(0.34542334,0,0,0.34542334,-6.039133,87.988765)" />
    <linearGradient
       inkscape:collect="always"
       xlink:href="#linearGradient1460"
       id="linearGradient1791"
       gradientUnits="userSpaceOnUse"
       x1="61.313354"
       y1="-1.3543969"
       x2="62.413956"
       y2="103.59476" />
    <mask
       maskUnits="userSpaceOnUse"
       id="mask1787">
      <path
         sodipodi:nodetypes="cccccc"
         id="path1789"
         d="m 32.16081,22.561267 c 20.751048,0 41.502096,0 62.253144,0 V 102.45875 H 32.16081 V 22.561671 Z"
         style="isolation:isolate;fill:url(#linearGradient1791);fill-opacity:1;stroke-width:0.20156889"
         inkscape:connector-curvature="0" />
    </mask>
    <linearGradient
       inkscape:collect="always"
       xlink:href="#linearGradient1441"
       id="linearGradient1862"
       gradientUnits="userSpaceOnUse"
       x1="110.04724"
       y1="61.269775"
       x2="82.773972"
       y2="118.62719"
       gradientTransform="matrix(0.34542334,0,0,0.34542334,-6.039133,87.988765)" />
    <linearGradient
       inkscape:collect="always"
       xlink:href="#_lgradient_5"
       id="linearGradient1878"
       x1="63.874424"
       y1="34.742867"
       x2="64.698021"
       y2="72.628418"
       gradientUnits="userSpaceOnUse"
       gradientTransform="matrix(0.34542334,0,0,0.34542334,-6.039133,90.498345)" />
    <linearGradient
       inkscape:collect="always"
       xlink:href="#linearGradient1910"
       id="linearGradient1890"
       x1="25"
       y1="64"
       x2="101"
       y2="110"
       gradientUnits="userSpaceOnUse" />
    <linearGradient
       inkscape:collect="always"
       xlink:href="#linearGradient1441"
       id="linearGradient1924"
       gradientUnits="userSpaceOnUse"
       x1="54.781986"
       y1="64.134422"
       x2="60.551353"
       y2="115.20943" />
    <mask
       maskUnits="userSpaceOnUse"
       id="mask1920">
      <path
         inkscape:connector-curvature="0"
         id="path1922"
         d="m 24.111722,63.68582 v 46.25 h 78.351558 l -39.175777,-23.125 z"
         style="isolation:isolate;fill:url(#linearGradient1924);fill-opacity:1;stroke-width:0.20156889" />
    </mask>
    <linearGradient
       inkscape:collect="always"
       xlink:href="#linearGradient1910"
       id="linearGradient1944"
       x1="102.46484"
       y1="63.687595"
       x2="63.287682"
       y2="86.811295"
       gradientUnits="userSpaceOnUse" />
    <linearGradient
       inkscape:collect="always"
       xlink:href="#linearGradient1441"
       id="linearGradient1963"
       gradientUnits="userSpaceOnUse"
       x1="110.04724"
       y1="61.269775"
       x2="82.773972"
       y2="118.62719" />
    <mask
       maskUnits="userSpaceOnUse"
       id="mask1959">
      <path
         inkscape:connector-curvature="0"
         style="isolation:isolate;fill:url(#linearGradient1963);fill-opacity:1;stroke-width:0.20156889"
         d="M 102.4642,63.686707 63.287682,86.811295 102.4642,109.93669 Z"
         id="path1961" />
    </mask>
    <mask
       maskUnits="userSpaceOnUse"
       id="mask1994">
      <path
         id="path1996"
         d="m 63.287109,40.5625 -39.175781,23.125 v 46.25 h 78.351562 v -46.25 z"
         style="isolation:isolate;fill:#f29950;fill-opacity:1;stroke-width:0.20156889"
         inkscape:connector-curvature="0" />
    </mask>
    <linearGradient
       id="linearGradient4236">
      <stop
         id="stop2020"
         style="stop-color:#575d5e;stop-opacity:1"
         offset="0" />
      <stop
         id="stop2022"
         style="stop-color:#292d2e;stop-opacity:1"
         offset="1" />
    </linearGradient>
    <linearGradient
       id="linearGradient3895">
      <stop
         id="stop2025"
         offset="0"
         style="stop-color:#ffffff;stop-opacity:1" />
      <stop
         id="stop2027"
         offset=".03"
         style="stop-color:#ffffff;stop-opacity:0.23529412" />
      <stop
         id="stop2029"
         offset=".978"
         style="stop-color:#ffffff;stop-opacity:0.15686275" />
      <stop
         id="stop2031"
         offset="1"
         style="stop-color:#ffffff;stop-opacity:0.39215687" />
    </linearGradient>
    <linearGradient
       id="linearGradient3688-166-749">
      <stop
         id="stop2034"
         offset="0"
         style="stop-color:#181818;stop-opacity:1" />
      <stop
         id="stop2036"
         offset="1"
         style="stop-color:#181818;stop-opacity:0" />
    </linearGradient>
    <linearGradient
       id="linearGradient3702-501-757">
      <stop
         id="stop2044"
         offset="0"
         style="stop-color:#181818;stop-opacity:0" />
      <stop
         id="stop2046"
         offset=".5"
         style="stop-color:#181818;stop-opacity:1" />
      <stop
         id="stop2048"
         offset="1"
         style="stop-color:#181818;stop-opacity:0" />
    </linearGradient>
    <linearGradient
       xlink:href="#linearGradient3895"
       gradientUnits="userSpaceOnUse"
       gradientTransform="translate(143.99999,124.62501)"
       y2="41.933998"
       y1="6.0320001"
       x2="24"
       x1="24"
       id="linearGradient3024" />
    <radialGradient
       xlink:href="#linearGradient3688-166-749"
       gradientUnits="userSpaceOnUse"
       gradientTransform="matrix(2.003784,0,0,1.4,27.98813,-17.4)"
       fy="43.5"
       fx="4.993"
       r="2.5"
       cy="43.5"
       cx="4.993"
       id="radialGradient3038" />
    <radialGradient
       xlink:href="#linearGradient3688-166-749"
       gradientUnits="userSpaceOnUse"
       gradientTransform="matrix(2.003784,0,0,1.4,-20.01187,-104.4)"
       fy="43.5"
       fx="4.993"
       r="2.5"
       cy="43.5"
       cx="4.993"
       id="radialGradient3040" />
    <linearGradient
       xlink:href="#linearGradient3702-501-757"
       gradientUnits="userSpaceOnUse"
       y2="39.999001"
       y1="47.028"
       x2="25.058001"
       x1="25.058001"
       id="linearGradient3042" />
    <linearGradient
       xlink:href="#linearGradient4236"
       gradientUnits="userSpaceOnUse"
       y2="44"
       y1="6"
       x2="25"
       x1="25"
       id="linearGradient4232"
       gradientTransform="translate(143.99999,123.625)" />
    <linearGradient
       inkscape:collect="always"
       xlink:href="#linearGradient1840"
       id="linearGradient2147"
       gradientUnits="userSpaceOnUse"
       x1="65.521622"
       y1="34.595703"
       x2="64.214844"
       y2="109.9375"
       gradientTransform="matrix(0.34542334,0,0,0.34542334,33.387194,87.988765)" />
  </defs>
  <defs
     id="defs65">
    <linearGradient
       id="_lgradient_6"
       x1="0.49999976"
       y1="-0.013513535"
       x2="0.49999976"
       y2="1.0135138">
      <stop
         offset="0%"
         style="stop-color:#FFFFFF"
         id="stop47" />
      <stop
         offset="6.316455%"
         style="stop-color:rgba(255,255,255,0.23529412)"
         id="stop49" />
      <stop
         offset="95.056331%"
         style="stop-color:rgba(255,255,255,0.15686275)"
         id="stop51" />
      <stop
         offset="100%"
         style="stop-color:rgba(255,255,255,0.39215687)"
         id="stop53" />
    </linearGradient>
    <linearGradient
       id="_lgradient_7"
       x1="0.49999976"
       y1="-0.013513535"
       x2="0.49999976"
       y2="1.0135138">
      <stop
         offset="0%"
         style="stop-color:#FFFFFF"
         id="stop56" />
      <stop
         offset="6.316455%"
         style="stop-color:rgba(255,255,255,0.23529412)"
         id="stop58" />
      <stop
         offset="95.056331%"
         style="stop-color:rgba(255,255,255,0.15686275)"
         id="stop60" />
      <stop
         offset="100%"
         style="stop-color:rgba(255,255,255,0.39215687)"
         id="stop62" />
    </linearGradient>
  </defs>
  <g
     inkscape:groupmode="layer"
     id="layer1"
     inkscape:label="Layer 1"
     style="display:none"
     transform="translate(0,-96)">
    <rect
       style="opacity:1;isolation:isolate;fill:#72b91b;fill-opacity:0.5606936;fill-rule:evenodd;stroke:none;stroke-width:0.5;stroke-linecap:round;stroke-linejoin:round;stroke-miterlimit:4;stroke-dasharray:none;stroke-dashoffset:0;stroke-opacity:0.71764706;paint-order:markers fill stroke"
       id="rect2151"
       width="32"
       height="32"
       x="0"
       y="96" />
  </g>
  <g
     inkscape:groupmode="layer"
     id="layer2"
     inkscape:label="Layer 2"
     transform="translate(0,-96)">
    <path
       style="isolation:isolate;fill:#f29950;fill-opacity:1;stroke-width:0.0696266"
       d="m 15.821712,102 -13.5322295,7.98791 v 15.97584 H 29.353943 v -15.97584 z"
       id="path1276"
       inkscape:connector-curvature="0" />
    <path
       style="fill:none;stroke:#000000;stroke-width:0.34542334px;stroke-linecap:butt;stroke-linejoin:miter;stroke-opacity:1"
       d="M 29.353943,109.98791 Z"
       id="path1793"
       inkscape:connector-curvature="0" />
    <path
       style="fill:none;stroke:#000000;stroke-width:0.34542334px;stroke-linecap:butt;stroke-linejoin:miter;stroke-opacity:1"
       d="M 29.354394,109.98764 Z"
       id="path1795"
       inkscape:connector-curvature="0" />
    <path
       sodipodi:nodetypes="cc"
       inkscape:connector-curvature="0"
       id="path1810"
       d="m 2.2894825,109.98791 3.038917,-1.79383"
       style="isolation:isolate;fill:none;fill-opacity:1;stroke:#de6d11;stroke-width:0.34542334;stroke-linecap:round;stroke-linejoin:round;stroke-miterlimit:4;stroke-dasharray:none;stroke-opacity:0.66473993" />
    <path
       style="isolation:isolate;fill:none;fill-opacity:1;stroke:#de6d11;stroke-width:0.34542334;stroke-linecap:round;stroke-linejoin:round;stroke-miterlimit:4;stroke-dasharray:none;stroke-opacity:0.66473993"
       d="M 29.354047,109.98791 26.31513,108.19408"
       id="path1753"
       inkscape:connector-curvature="0"
       sodipodi:nodetypes="cc" />
    <g
       transform="matrix(0.81922385,0,0,0.45482864,-3.8395662,105.87305)"
       style="opacity:0.6;isolation:isolate"
       id="g2064">
      <rect
         width="5"
         height="7"
         x="38"
         y="40"
         style="fill:url(#radialGradient3038);fill-opacity:1;stroke:none"
         id="rect2058" />
      <rect
         width="5"
         height="7"
         x="-10"
         y="-47"
         transform="scale(-1)"
         style="fill:url(#radialGradient3040);fill-opacity:1;stroke:none"
         id="rect2060" />
      <rect
         width="28"
         height="7"
         x="10"
         y="40"
         style="fill:url(#linearGradient3042);fill-opacity:1;stroke:none"
         id="rect2062" />
    </g>
    <path
       inkscape:connector-curvature="0"
       id="path3037"
       d="m 15.821712,102 -13.5322295,7.98791 v 15.97584 H 29.353943 v -15.97584 z"
       style="isolation:isolate;fill:#f29950;fill-opacity:1;stroke-width:0.0696266" />
  </g>
  <g
     inkscape:groupmode="layer"
     id="layer4"
     inkscape:label="Layer 4"
     transform="translate(0,-96)">
    <path
       inkscape:connector-curvature="0"
       style="isolation:isolate;fill:url(#linearGradient1462);fill-opacity:1;stroke-width:0.0696266"
       d="m 5.069962,99.93879 h 21.503691 v 23.44163 H 5.069962 V 99.938929 Z"
       id="path1282"
       sodipodi:nodetypes="cccccc" />
    <path
       style="isolation:isolate;fill:url(#linearGradient1443);fill-opacity:1;stroke-width:0.0696266"
       d="m 2.2896189,109.98734 v 15.97583 H 29.354077 l -13.532229,-7.98792 z"
       id="path1290"
       inkscape:connector-curvature="0" />
    <path
       id="path1292"
       d="m 29.354394,109.98764 -13.532484,7.98777 13.532484,7.98806 z"
       style="isolation:isolate;fill:url(#linearGradient1862);fill-opacity:1;stroke-width:0.0696266"
       inkscape:connector-curvature="0" />
    <path
       style="isolation:isolate;fill:none;fill-opacity:1;stroke:#578427;stroke-width:0.34542334;stroke-linecap:round;stroke-linejoin:round;stroke-miterlimit:4;stroke-dasharray:none;stroke-opacity:0.64739883"
       d="M 26.573653,111.62804 V 99.93879 H 5.069962 v 11.68975"
       id="path1766"
       inkscape:connector-curvature="0"
       sodipodi:nodetypes="cccc" />
    <path
       style="isolation:isolate;fill:none;stroke:#bc8d12;stroke-width:0.34542334px;stroke-linecap:round;stroke-linejoin:miter;stroke-opacity:0.71676301"
       d="m 29.354394,109.98764 -2.48e-4,15.97553 c 0,0 -27.0644559,0 -27.0644559,0 l -1.734e-4,-15.97526"
       id="path1797"
       inkscape:connector-curvature="0" />
    <path
       style="isolation:isolate;fill:none;fill-opacity:1;stroke:url(#linearGradient1890);stroke-width:2;stroke-linecap:round;stroke-linejoin:round;stroke-miterlimit:4;stroke-dasharray:none"
       d="M 102.46328,109.93582 63.287503,86.81082 24.111722,63.68582"
       id="path1882"
       inkscape:connector-curvature="0"
       sodipodi:nodetypes="ccc"
       mask="url(#mask1920)"
       transform="matrix(0.34542334,0,0,0.34542334,-6.0391335,87.988765)" />
    <path
       inkscape:connector-curvature="0"
       id="path1936"
       d="M 102.4642,63.686707 63.287682,86.811295"
       style="isolation:isolate;fill:none;stroke:url(#linearGradient1944);stroke-width:2;stroke-linecap:round;stroke-linejoin:round;stroke-miterlimit:4;stroke-dasharray:none;stroke-opacity:0.71764706"
       mask="url(#mask1959)"
       transform="matrix(0.34542334,0,0,0.34542334,-6.0391335,87.988765)" />
    <path
       sodipodi:nodetypes="cccccccccccccc"
       id="path2145"
       d="m 44.496062,99.938895 v 6.91e-4 8.406914 l -2.779578,1.64076 h -6.91e-4 v 15.97583 6.9e-4 h 27.064457 6.91e-4 V 109.98795 H 68.78025 L 66,108.34651 v -8.407581 z"
       style="isolation:isolate;fill:none;fill-opacity:1;stroke:url(#linearGradient2147);stroke-width:0.69999999;stroke-miterlimit:4;stroke-dasharray:none;stroke-opacity:0.64739883"
       inkscape:connector-curvature="0" />
    <path
       sodipodi:nodetypes="cccccc"
       id="path3039"
       d="m 5.069962,99.93879 h 21.503691 v 23.44163 H 5.069962 V 99.938929 Z"
       style="isolation:isolate;fill:url(#linearGradient1462);fill-opacity:1;stroke-width:0.0696266"
       inkscape:connector-curvature="0" />
    <path
       inkscape:connector-curvature="0"
       id="path3041"
       d="m 2.2896189,109.98734 v 15.97583 H 29.354077 l -13.532229,-7.98792 z"
       style="isolation:isolate;fill:url(#linearGradient1443);fill-opacity:1;stroke-width:0.0696266" />
    <path
       inkscape:connector-curvature="0"
       style="isolation:isolate;fill:url(#linearGradient1862);fill-opacity:1;stroke-width:0.0696266"
       d="m 29.354394,109.98764 -13.532484,7.98777 13.532484,7.98806 z"
       id="path3043" />
  </g>
  <g
     inkscape:groupmode="layer"
     id="layer3"
     inkscape:label="Layer 3"
     transform="translate(0,-96)">
    <path
       style="fill:none;stroke:#bc8d12;stroke-width:0.34542334px;stroke-linecap:round;stroke-linejoin:round;stroke-opacity:0.71764706"
       d="M 29.354077,125.96317 2.2896189,109.98734"
       id="path1817"
       inkscape:connector-curvature="0" />
    <path
       style="fill:none;stroke:#bc8d12;stroke-width:0.34542334px;stroke-linecap:round;stroke-linejoin:round;stroke-opacity:0.71764706"
       d="M 29.354394,109.98764 15.82191,117.97541"
       id="path1819"
       inkscape:connector-curvature="0" />
    <path
       style="opacity:1;isolation:isolate;fill:url(#linearGradient1878);fill-opacity:1;fill-rule:evenodd;stroke:none;stroke-width:0.24808274;stroke-linecap:round;stroke-linejoin:round;stroke-miterlimit:4;stroke-dasharray:none;stroke-dashoffset:0;stroke-opacity:1;paint-order:markers fill stroke"
       d="m 15.228127,102.44883 v 1.10256 c -0.884503,0.12441 -1.532496,0.46555 -1.943961,1.02358 -0.411466,0.55925 -0.61851,1.18879 -0.61851,1.88727 0,0.53217 0.115831,1.00016 0.346201,1.40177 0.230371,0.40039 0.53095,0.7122 0.900512,0.93394 0.369562,0.22414 0.883279,0.44832 1.539857,0.67617 0.73049,0.25867 1.20248,0.47184 1.414361,0.64056 0.211843,0.16753 0.317615,0.41515 0.317615,0.74158 0,0.31536 -0.105732,0.584 -0.317615,0.807 -0.211881,0.223 -0.544644,0.33384 -0.994267,0.33384 -0.962083,0 -1.528757,-0.52001 -1.699997,-1.56093 l -1.847779,0.48187 c 0.373227,1.65564 1.340348,2.56467 2.903584,2.72479 v 1.42042 h 1.194867 v -1.42769 c 0.937484,-0.0986 1.654403,-0.42631 2.150857,-0.98312 0.496456,-0.55559 0.745218,-1.25034 0.745218,-2.08423 0,-0.54325 -0.120513,-1.01752 -0.360738,-1.42406 -0.241447,-0.40528 -0.56308,-0.72441 -0.967135,-0.95478 -0.402832,-0.23037 -0.95967,-0.4756 -1.669228,-0.73431 -0.645501,-0.23775 -1.068037,-0.43606 -1.263913,-0.59622 -0.197099,-0.16139 -0.295567,-0.39159 -0.295567,-0.69217 0,-0.29442 0.102201,-0.54577 0.306711,-0.75272 0.203249,-0.20696 0.474288,-0.31035 0.811841,-0.31035 0.672543,0 1.167713,0.46304 1.489222,1.38941 l 1.645971,-0.67496 c -0.392938,-1.35135 -1.25789,-2.1065 -2.59324,-2.26666 v -1.10256 z"
       id="rect1537"
       inkscape:connector-curvature="0" />
    <path
       style="opacity:1;isolation:isolate;fill:#1e6600;fill-opacity:1;fill-rule:evenodd;stroke:none;stroke-width:0.24808274;stroke-linecap:round;stroke-linejoin:round;stroke-miterlimit:4;stroke-dasharray:none;stroke-dashoffset:0;stroke-opacity:1;paint-order:markers fill stroke"
       d="m 15.228016,102.44851 v 0.34542 h 1.194814 v -0.34542 z m 0,1.10306 c -0.884504,0.12441 -1.532216,0.46542 -1.943681,1.02345 -0.411467,0.55925 -0.618658,1.18853 -0.618658,1.88701 0,0.047 0.0056,0.0909 0.0074,0.13696 0.03753,-0.61553 0.241265,-1.17569 0.611236,-1.67855 0.411465,-0.55802 1.059177,-0.89904 1.943681,-1.02345 z m 1.194814,0 v 0.34542 c 1.230132,0.14755 2.056287,0.80627 2.486778,1.9646 l 0.106596,-0.0439 c -0.392939,-1.35136 -1.258025,-2.106 -2.593374,-2.26617 z m -1.645483,2.79105 c -0.0081,0.0552 -0.01485,0.11069 -0.01485,0.16934 0,0.30057 0.0984,0.53081 0.295499,0.69219 0.195877,0.16017 0.618128,0.35866 1.263629,0.5964 0.709559,0.25871 1.266938,0.50365 1.66977,0.73402 0.404055,0.23037 0.725335,0.54936 0.966781,0.95464 0.219588,0.37161 0.333923,0.80284 0.352845,1.28859 0.0037,-0.0694 0.0081,-0.13841 0.0081,-0.20982 0,-0.54324 -0.120714,-1.01698 -0.360939,-1.42352 -0.241447,-0.40528 -0.562727,-0.72494 -0.966782,-0.95531 -0.402831,-0.23037 -0.960212,-0.47531 -1.669771,-0.73403 -0.6455,-0.23774 -1.067752,-0.43623 -1.263628,-0.59639 -0.156276,-0.12796 -0.24831,-0.30085 -0.280657,-0.51611 z m -0.605166,4.0938 -1.84788,0.48171 c 0.02515,0.11154 0.05312,0.21906 0.08366,0.32383 l 1.764223,-0.46079 c 0.17124,1.04093 0.738048,1.56115 1.70013,1.56115 0.449624,0 0.782561,-0.11095 0.994442,-0.33395 0.211882,-0.223 0.317762,-0.49153 0.317762,-0.80689 0,-0.0615 -0.008,-0.11748 -0.01552,-0.17338 -0.03238,0.2416 -0.13033,0.45391 -0.302245,0.63485 -0.211881,0.223 -0.544818,0.33395 -0.994441,0.33395 -0.962082,0 -1.52889,-0.51955 -1.700131,-1.56048 z"
       id="path1866"
       inkscape:connector-curvature="0" />
  </g>
  <g
     id="g1310"
     transform="translate(-58.482081,118.68935)" />
  <g
     id="g1312"
     transform="translate(-58.482081,118.68935)" />
  <g
     id="g1314"
     transform="translate(-58.482081,118.68935)" />
  <g
     id="g1316"
     transform="translate(-58.482081,118.68935)" />
  <g
     id="g1318"
     transform="translate(-58.482081,118.68935)" />
  <g
     id="g1320"
     transform="translate(-58.482081,118.68935)" />
  <g
     id="g1322"
     transform="translate(-58.482081,118.68935)" />
  <g
     id="g1324"
     transform="translate(-58.482081,118.68935)" />
  <g
     id="g1326"
     transform="translate(-58.482081,118.68935)" />
  <g
     id="g1328"
     transform="translate(-58.482081,118.68935)" />
  <g
     id="g1330"
     transform="translate(-58.482081,118.68935)" />
  <g
     id="g1332"
     transform="translate(-58.482081,118.68935)" />
  <g
     id="g1334"
     transform="translate(-58.482081,118.68935)" />
  <g
     id="g1336"
     transform="translate(-58.482081,118.68935)" />
  <g
     id="g1338"
     transform="translate(-58.482081,118.68935)" />
  <g
     aria-label="$"
     transform="translate(2.1694915,-84.338983)"
     style="font-style:normal;font-weight:normal;font-size:17.33333397px;line-height:1.25;font-family:sans-serif;letter-spacing:0px;word-spacing:0px;fill:#000000;fill-opacity:1;stroke:none"
     id="flowRoot1466" />
  <g
     id="g1481"
     transform="matrix(0.31779661,0,0,0.31779661,63.66102,-334.71186)" />
  <g
     id="g1483"
     transform="matrix(0.31779661,0,0,0.31779661,63.66102,-334.71186)" />
  <g
     id="g1485"
     transform="matrix(0.31779661,0,0,0.31779661,63.66102,-334.71186)" />
  <g
     id="g1487"
     transform="matrix(0.31779661,0,0,0.31779661,63.66102,-334.71186)" />
  <g
     id="g1489"
     transform="matrix(0.31779661,0,0,0.31779661,63.66102,-334.71186)" />
  <g
     id="g1491"
     transform="matrix(0.31779661,0,0,0.31779661,63.66102,-334.71186)" />
  <g
     id="g1493"
     transform="matrix(0.31779661,0,0,0.31779661,63.66102,-334.71186)" />
  <g
     id="g1495"
     transform="matrix(0.31779661,0,0,0.31779661,63.66102,-334.71186)" />
  <g
     id="g1497"
     transform="matrix(0.31779661,0,0,0.31779661,63.66102,-334.71186)" />
  <g
     id="g1499"
     transform="matrix(0.31779661,0,0,0.31779661,63.66102,-334.71186)" />
  <g
     id="g1501"
     transform="matrix(0.31779661,0,0,0.31779661,63.66102,-334.71186)" />
  <g
     id="g1503"
     transform="matrix(0.31779661,0,0,0.31779661,63.66102,-334.71186)" />
  <g
     id="g1505"
     transform="matrix(0.31779661,0,0,0.31779661,63.66102,-334.71186)" />
  <g
     id="g1507"
     transform="matrix(0.31779661,0,0,0.31779661,63.66102,-334.71186)" />
  <g
     id="g1509"
     transform="matrix(0.31779661,0,0,0.31779661,63.66102,-334.71186)" />
</svg>
